<svg id="Layer_1" data-name="Layer 1" xmlns="http://www.w3.org/2000/svg" viewBox="0 0 206.57 206.6"><defs><style>.cls-1{fill:#51b848;}.cls-2{fill:#642265;}.cls-3,.cls-5,.cls-6,.cls-7{fill:none;stroke-miterlimit:10;}.cls-3,.cls-5,.cls-7{stroke:#000;}.cls-3{stroke-width:8px;}.cls-4{fill:#f5f4dc;}.cls-6{stroke:#fff;}.cls-7{stroke-linecap:round;stroke-width:2px;stroke-dasharray:0 19.84;}</style></defs><path class="cls-1" d="M300.19,407.23l12.19,11.94c1.18.23,3,.58,5.3,1,13.32,2.21,20.11,3.26,26.11.25.53-.27,6.85-3.51,6.44-7.15-.23-2.09-2.58-3.42-3.63-4-4.45-2.52-9.4-1-10.79-.51a48.44,48.44,0,0,0,9.38-2.3c7.05-2.49,10.19-5.46,11.68-7.14,2.4-2.7,2.1-3.87,2.11-4.22,0-3.83-5.47-3-7-3.19a21.74,21.74,0,0,0-12.39,2.36,40.65,40.65,0,0,0,8.81-8.93c3.58-5,4.26-8.41,4.47-9.9.53-3.73-.18-6.05-.51-6.57a7.25,7.25,0,0,0-4-2.87c-1.44-.46-4.56-.23-10.72,3.32A45.14,45.14,0,0,0,325,380.17a41.33,41.33,0,0,0,1.85-13.72c-.13-3.16-.61-4.88-1.78-5.43-1.38-.64-3.18.56-4,1.09-5.66,3.77-8.61,14.89-9.58,19,1.23-3.47.63-7.25-1.68-9.46-.28-.27-2.83-2.64-5.81-2s-5.71,4.61-5.27,9.27Q299.5,393.09,300.19,407.23Z" transform="translate(-194.35 -317.65)"/><path class="cls-2" d="M255.68,408a33.77,33.77,0,0,0-3.32,7.83,49.25,49.25,0,0,0-1.7,10.81c-.39,4.94-.34,7.78-.43,11.32a160.1,160.1,0,0,1-1.44,18.21,104.82,104.82,0,0,1-4.34,18.05c1.36-.38,3.26-.89,5.53-1.45,2.92-.73,9-2.23,15-3.15,1.42-.22,2.22-.31,15-1.19,10.88-.76,12.45-.84,15.74-1.28,6.56-.88,9.91-1.35,13.53-3,2.8-1.25,7.76-3.48,11.07-8.59,4.13-6.39,3.16-13.41,2.63-17.19A36,36,0,0,0,312.28,418l-12.43-12.17a44.86,44.86,0,0,0-9.7-6.64c-4.1-2.07-8.15-4.12-13.79-4.08a23.24,23.24,0,0,0-12,3.4A25.4,25.4,0,0,0,255.68,408Z" transform="translate(-194.35 -317.65)"/><ellipse class="cls-3" cx="103.28" cy="103.3" rx="99.28" ry="99.3"/><path class="cls-4" d="M379.62,420.94a82,82,0,1,1-82-82A82,82,0,0,1,379.62,420.94Zm-63.09-50a75.11,75.11,0,0,0-6.33,19c0,.1-.05.2-.28.29.06-.94.11-1.88.16-2.81s.15-2,.19-3c.14-3.53.52-7.08-.32-10.58-.43-1.79-1.18-3.52-3.26-3.83s-3.23,1.08-4.24,2.58a13.3,13.3,0,0,0-2.28,7.44c0,4.44.29,8.89.51,13.33.21,4.27.5,8.53.73,12.79a10,10,0,0,1-.16,1.61l-1.06-.79c-5.62-4.35-11.66-7.9-18.64-9.56-6.24-1.49-12.26-1.14-17.76,2.55-4.66,3.14-7.24,7.71-8.84,12.94a74.69,74.69,0,0,0-2.65,15.71c-.74,8.66-1.33,17.33-2.26,26a69.54,69.54,0,0,1-4.51,18.31c-.07.17-.1.34-.18.61,2-.66,3.89-1.33,5.82-1.91a93,93,0,0,1,19.44-3.49c7.46-.63,14.93-1.08,22.38-1.79,6.19-.58,12.32-1.54,18-4.37a20,20,0,0,0,11.12-21.18c-1-7.29-4.17-13.6-8.29-19.54-.79-1.13-1.65-2.23-2.47-3.34,0,0,0-.07,0-.26a9.91,9.91,0,0,1,1.44-.16c4.3.24,8.6.44,12.89.78,4.91.39,9.82,1,14.75.3a12.42,12.42,0,0,0,6.6-2.67,7,7,0,0,0,1.76-2.43,2.73,2.73,0,0,0-1.53-3.57,12.79,12.79,0,0,0-4.78-1.31c-3.82-.09-7.66.18-11.49.29-.76,0-1.52,0-2.54,0,2.44-.61,4.65-1.12,6.84-1.71a60.48,60.48,0,0,0,16-6.61,18.7,18.7,0,0,0,6.29-5.44v-1.32c-1.2-1.67-3-1.55-4.68-1.37-3.4.36-6.77,1-10.16,1.5-1.5.23-3,.44-4.51.66l-.15-.26c.39-.55.74-1.13,1.16-1.65,2.8-3.47,5.74-6.83,8.38-10.41a65.2,65.2,0,0,0,4.08-7.09,6.6,6.6,0,0,0,.57-1.76c1-4.84-2.25-7.95-7.07-6.68a24,24,0,0,0-8.46,4.47c-3.56,2.73-7,5.64-10.48,8.46-.52.42-1.1.78-1.66,1.17l-.31-.16q.57-3.37,1.15-6.74c.59-3.34,1.33-6.66,1-10.09a3.12,3.12,0,0,0-1.32-2.51h-1.32C320.31,363.74,318.4,367.33,316.53,370.91Z" transform="translate(-194.35 -317.65)"/><path class="cls-5" d="M325.32,413.17" transform="translate(-194.35 -317.65)"/><path class="cls-5" d="M294.09,433.84" transform="translate(-194.35 -317.65)"/><circle class="cls-6" cx="103.28" cy="103.3" r="76.91"/><ellipse class="cls-7" cx="103.28" cy="103.3" rx="88.38" ry="88.4"/></svg>